<mxfile host="app.diagrams.net" modified="2024-04-30T00:10:27.058Z" agent="Mozilla/5.0 (X11; Linux x86_64) AppleWebKit/537.36 (KHTML, like Gecko) Chrome/124.0.0.0 Safari/537.36" etag="-B2Hx2RA3NwPHBEhpIR3" version="24.3.1" type="google">
  <diagram name="PÃ¡gina-1" id="sbA4Xt9z1xQm_kbztMEz">
    <mxGraphModel grid="1" page="1" gridSize="10" guides="1" tooltips="1" connect="1" arrows="1" fold="1" pageScale="1" pageWidth="827" pageHeight="1169" math="0" shadow="0">
      <root>
        <mxCell id="0" />
        <mxCell id="1" parent="0" />
        <mxCell id="Hkvkkceks_1zQiWRPkAM-1" value="Customer" style="swimlane;fontStyle=1;align=center;verticalAlign=top;childLayout=stackLayout;horizontal=1;startSize=26;horizontalStack=0;resizeParent=1;resizeParentMax=0;resizeLast=0;collapsible=1;marginBottom=0;whiteSpace=wrap;html=1;labelBackgroundColor=none;" vertex="1" parent="1">
          <mxGeometry x="435" y="290" width="210" height="128" as="geometry" />
        </mxCell>
        <mxCell id="Hkvkkceks_1zQiWRPkAM-2" value="&lt;div&gt;+ name: string&lt;br&gt;&lt;/div&gt;&lt;div&gt;+ phoneNumber: string&lt;/div&gt;&lt;div&gt;+ address: string&lt;/div&gt;&lt;div&gt;+ cpf: string&lt;/div&gt;&lt;div&gt;+ password: string&lt;/div&gt;" style="text;strokeColor=none;fillColor=none;align=left;verticalAlign=top;spacingLeft=4;spacingRight=4;overflow=hidden;rotatable=0;points=[[0,0.5],[1,0.5]];portConstraint=eastwest;whiteSpace=wrap;html=1;labelBackgroundColor=none;" vertex="1" parent="Hkvkkceks_1zQiWRPkAM-1">
          <mxGeometry y="26" width="210" height="94" as="geometry" />
        </mxCell>
        <mxCell id="Hkvkkceks_1zQiWRPkAM-3" value="" style="line;strokeWidth=1;fillColor=none;align=left;verticalAlign=middle;spacingTop=-1;spacingLeft=3;spacingRight=3;rotatable=0;labelPosition=right;points=[];portConstraint=eastwest;labelBackgroundColor=none;" vertex="1" parent="Hkvkkceks_1zQiWRPkAM-1">
          <mxGeometry y="120" width="210" height="8" as="geometry" />
        </mxCell>
        <mxCell id="Hkvkkceks_1zQiWRPkAM-7" value="Order" style="swimlane;fontStyle=1;align=center;verticalAlign=top;childLayout=stackLayout;horizontal=1;startSize=26;horizontalStack=0;resizeParent=1;resizeParentMax=0;resizeLast=0;collapsible=1;marginBottom=0;whiteSpace=wrap;html=1;labelBackgroundColor=none;" vertex="1" parent="1">
          <mxGeometry x="460" y="90" width="160" height="34" as="geometry" />
        </mxCell>
        <mxCell id="Hkvkkceks_1zQiWRPkAM-9" value="" style="line;strokeWidth=1;fillColor=none;align=left;verticalAlign=middle;spacingTop=-1;spacingLeft=3;spacingRight=3;rotatable=0;labelPosition=right;points=[];portConstraint=eastwest;labelBackgroundColor=none;" vertex="1" parent="Hkvkkceks_1zQiWRPkAM-7">
          <mxGeometry y="26" width="160" height="8" as="geometry" />
        </mxCell>
        <mxCell id="Hkvkkceks_1zQiWRPkAM-11" style="rounded=0;orthogonalLoop=1;jettySize=auto;html=1;endArrow=none;endFill=0;labelBackgroundColor=none;fontColor=default;" edge="1" parent="1" source="Hkvkkceks_1zQiWRPkAM-7" target="Hkvkkceks_1zQiWRPkAM-1">
          <mxGeometry relative="1" as="geometry" />
        </mxCell>
        <mxCell id="Hkvkkceks_1zQiWRPkAM-13" value="1" style="edgeLabel;html=1;align=center;verticalAlign=middle;resizable=0;points=[];labelBackgroundColor=none;" vertex="1" connectable="0" parent="Hkvkkceks_1zQiWRPkAM-11">
          <mxGeometry x="0.901" y="2" relative="1" as="geometry">
            <mxPoint x="13" y="-4" as="offset" />
          </mxGeometry>
        </mxCell>
        <mxCell id="Hkvkkceks_1zQiWRPkAM-14" value="0..*" style="edgeLabel;html=1;align=center;verticalAlign=middle;resizable=0;points=[];labelBackgroundColor=none;" vertex="1" connectable="0" parent="Hkvkkceks_1zQiWRPkAM-11">
          <mxGeometry x="-0.9275" y="-1" relative="1" as="geometry">
            <mxPoint x="-10" y="3" as="offset" />
          </mxGeometry>
        </mxCell>
        <mxCell id="Hkvkkceks_1zQiWRPkAM-15" value="Product" style="swimlane;fontStyle=1;align=center;verticalAlign=top;childLayout=stackLayout;horizontal=1;startSize=26;horizontalStack=0;resizeParent=1;resizeParentMax=0;resizeLast=0;collapsible=1;marginBottom=0;whiteSpace=wrap;html=1;labelBackgroundColor=none;" vertex="1" parent="1">
          <mxGeometry x="1020" y="77" width="160" height="60" as="geometry" />
        </mxCell>
        <mxCell id="Hkvkkceks_1zQiWRPkAM-16" value="+ availableQuantity: uint" style="text;strokeColor=none;fillColor=none;align=left;verticalAlign=top;spacingLeft=4;spacingRight=4;overflow=hidden;rotatable=0;points=[[0,0.5],[1,0.5]];portConstraint=eastwest;whiteSpace=wrap;html=1;labelBackgroundColor=none;" vertex="1" parent="Hkvkkceks_1zQiWRPkAM-15">
          <mxGeometry y="26" width="160" height="26" as="geometry" />
        </mxCell>
        <mxCell id="Hkvkkceks_1zQiWRPkAM-17" value="" style="line;strokeWidth=1;fillColor=none;align=left;verticalAlign=middle;spacingTop=-1;spacingLeft=3;spacingRight=3;rotatable=0;labelPosition=right;points=[];portConstraint=eastwest;labelBackgroundColor=none;" vertex="1" parent="Hkvkkceks_1zQiWRPkAM-15">
          <mxGeometry y="52" width="160" height="8" as="geometry" />
        </mxCell>
        <mxCell id="Hkvkkceks_1zQiWRPkAM-32" style="rounded=0;orthogonalLoop=1;jettySize=auto;html=1;endArrow=none;endFill=0;labelBackgroundColor=none;fontColor=default;" edge="1" parent="1" source="Hkvkkceks_1zQiWRPkAM-26" target="Hkvkkceks_1zQiWRPkAM-7">
          <mxGeometry relative="1" as="geometry" />
        </mxCell>
        <mxCell id="Hkvkkceks_1zQiWRPkAM-34" value="1" style="edgeLabel;html=1;align=center;verticalAlign=middle;resizable=0;points=[];labelBackgroundColor=none;" vertex="1" connectable="0" parent="Hkvkkceks_1zQiWRPkAM-32">
          <mxGeometry x="0.7846" y="-2" relative="1" as="geometry">
            <mxPoint y="-14" as="offset" />
          </mxGeometry>
        </mxCell>
        <mxCell id="Hkvkkceks_1zQiWRPkAM-35" value="1..*" style="edgeLabel;html=1;align=center;verticalAlign=middle;resizable=0;points=[];labelBackgroundColor=none;" vertex="1" connectable="0" parent="Hkvkkceks_1zQiWRPkAM-32">
          <mxGeometry x="-0.6366" relative="1" as="geometry">
            <mxPoint y="19" as="offset" />
          </mxGeometry>
        </mxCell>
        <mxCell id="Hkvkkceks_1zQiWRPkAM-33" style="rounded=0;orthogonalLoop=1;jettySize=auto;html=1;endArrow=none;endFill=0;labelBackgroundColor=none;fontColor=default;" edge="1" parent="1" source="Hkvkkceks_1zQiWRPkAM-26" target="Hkvkkceks_1zQiWRPkAM-15">
          <mxGeometry relative="1" as="geometry" />
        </mxCell>
        <mxCell id="Hkvkkceks_1zQiWRPkAM-36" value="1..*" style="edgeLabel;html=1;align=center;verticalAlign=middle;resizable=0;points=[];labelBackgroundColor=none;" vertex="1" connectable="0" parent="Hkvkkceks_1zQiWRPkAM-33">
          <mxGeometry x="-0.7319" y="2" relative="1" as="geometry">
            <mxPoint x="-4" y="16" as="offset" />
          </mxGeometry>
        </mxCell>
        <mxCell id="Hkvkkceks_1zQiWRPkAM-37" value="1" style="edgeLabel;html=1;align=center;verticalAlign=middle;resizable=0;points=[];labelBackgroundColor=none;" vertex="1" connectable="0" parent="Hkvkkceks_1zQiWRPkAM-33">
          <mxGeometry x="0.8388" y="2" relative="1" as="geometry">
            <mxPoint y="9" as="offset" />
          </mxGeometry>
        </mxCell>
        <mxCell id="Hkvkkceks_1zQiWRPkAM-26" value="OrderItem" style="swimlane;fontStyle=1;align=center;verticalAlign=top;childLayout=stackLayout;horizontal=1;startSize=26;horizontalStack=0;resizeParent=1;resizeParentMax=0;resizeLast=0;collapsible=1;marginBottom=0;whiteSpace=wrap;html=1;labelBackgroundColor=none;" vertex="1" parent="1">
          <mxGeometry x="760" y="77" width="160" height="60" as="geometry" />
        </mxCell>
        <mxCell id="Hkvkkceks_1zQiWRPkAM-27" value="+ quantity: uint" style="text;strokeColor=none;fillColor=none;align=left;verticalAlign=top;spacingLeft=4;spacingRight=4;overflow=hidden;rotatable=0;points=[[0,0.5],[1,0.5]];portConstraint=eastwest;whiteSpace=wrap;html=1;labelBackgroundColor=none;" vertex="1" parent="Hkvkkceks_1zQiWRPkAM-26">
          <mxGeometry y="26" width="160" height="26" as="geometry" />
        </mxCell>
        <mxCell id="Hkvkkceks_1zQiWRPkAM-28" value="" style="line;strokeWidth=1;fillColor=none;align=left;verticalAlign=middle;spacingTop=-1;spacingLeft=3;spacingRight=3;rotatable=0;labelPosition=right;points=[];portConstraint=eastwest;labelBackgroundColor=none;" vertex="1" parent="Hkvkkceks_1zQiWRPkAM-26">
          <mxGeometry y="52" width="160" height="8" as="geometry" />
        </mxCell>
        <mxCell id="OknJXwTi2QquN4bvKiqD-5" style="rounded=0;orthogonalLoop=1;jettySize=auto;html=1;endArrow=diamondThin;endFill=1;labelBackgroundColor=none;fontColor=default;" edge="1" parent="1" source="OknJXwTi2QquN4bvKiqD-1" target="Hkvkkceks_1zQiWRPkAM-15">
          <mxGeometry relative="1" as="geometry" />
        </mxCell>
        <mxCell id="OknJXwTi2QquN4bvKiqD-1" value="ProductService" style="swimlane;fontStyle=1;align=center;verticalAlign=top;childLayout=stackLayout;horizontal=1;startSize=26;horizontalStack=0;resizeParent=1;resizeParentMax=0;resizeLast=0;collapsible=1;marginBottom=0;whiteSpace=wrap;html=1;labelBackgroundColor=none;" vertex="1" parent="1">
          <mxGeometry x="985" y="310" width="230" height="90" as="geometry" />
        </mxCell>
        <mxCell id="OknJXwTi2QquN4bvKiqD-3" value="" style="line;strokeWidth=1;fillColor=none;align=left;verticalAlign=middle;spacingTop=-1;spacingLeft=3;spacingRight=3;rotatable=0;labelPosition=right;points=[];portConstraint=eastwest;labelBackgroundColor=none;" vertex="1" parent="OknJXwTi2QquN4bvKiqD-1">
          <mxGeometry y="26" width="230" height="8" as="geometry" />
        </mxCell>
        <mxCell id="OknJXwTi2QquN4bvKiqD-4" value="+ createProduct(Product): Product&lt;div&gt;+ findMany(Partial&amp;lt;Product&amp;gt;): Product[]&lt;/div&gt;&lt;div&gt;+ findOne(uint): Product | null&lt;/div&gt;&lt;div&gt;&lt;br&gt;&lt;/div&gt;" style="text;strokeColor=none;fillColor=none;align=left;verticalAlign=top;spacingLeft=4;spacingRight=4;overflow=hidden;rotatable=0;points=[[0,0.5],[1,0.5]];portConstraint=eastwest;whiteSpace=wrap;html=1;labelBackgroundColor=none;" vertex="1" parent="OknJXwTi2QquN4bvKiqD-1">
          <mxGeometry y="34" width="230" height="56" as="geometry" />
        </mxCell>
        <mxCell id="OknJXwTi2QquN4bvKiqD-21" style="rounded=0;orthogonalLoop=1;jettySize=auto;html=1;endArrow=diamond;endFill=1;" edge="1" parent="1" source="OknJXwTi2QquN4bvKiqD-17" target="Hkvkkceks_1zQiWRPkAM-7">
          <mxGeometry relative="1" as="geometry" />
        </mxCell>
        <mxCell id="OknJXwTi2QquN4bvKiqD-17" value="OrderService" style="swimlane;fontStyle=1;align=center;verticalAlign=top;childLayout=stackLayout;horizontal=1;startSize=26;horizontalStack=0;resizeParent=1;resizeParentMax=0;resizeLast=0;collapsible=1;marginBottom=0;whiteSpace=wrap;html=1;" vertex="1" parent="1">
          <mxGeometry x="110" y="42" width="180" height="130" as="geometry" />
        </mxCell>
        <mxCell id="OknJXwTi2QquN4bvKiqD-19" value="" style="line;strokeWidth=1;fillColor=none;align=left;verticalAlign=middle;spacingTop=-1;spacingLeft=3;spacingRight=3;rotatable=0;labelPosition=right;points=[];portConstraint=eastwest;strokeColor=inherit;" vertex="1" parent="OknJXwTi2QquN4bvKiqD-17">
          <mxGeometry y="26" width="180" height="8" as="geometry" />
        </mxCell>
        <mxCell id="OknJXwTi2QquN4bvKiqD-20" value="+ createOrder(Order): Order&lt;div&gt;+ findMany(args): Order[]&lt;/div&gt;&lt;div&gt;+ findOne(number): Order&lt;/div&gt;&lt;div&gt;+ cancelOrder(number): Order&lt;/div&gt;" style="text;strokeColor=none;fillColor=none;align=left;verticalAlign=top;spacingLeft=4;spacingRight=4;overflow=hidden;rotatable=0;points=[[0,0.5],[1,0.5]];portConstraint=eastwest;whiteSpace=wrap;html=1;" vertex="1" parent="OknJXwTi2QquN4bvKiqD-17">
          <mxGeometry y="34" width="180" height="96" as="geometry" />
        </mxCell>
        <mxCell id="OknJXwTi2QquN4bvKiqD-22" value="CustomerService" style="swimlane;fontStyle=1;align=center;verticalAlign=top;childLayout=stackLayout;horizontal=1;startSize=26;horizontalStack=0;resizeParent=1;resizeParentMax=0;resizeLast=0;collapsible=1;marginBottom=0;whiteSpace=wrap;html=1;" vertex="1" parent="1">
          <mxGeometry x="30" y="270" width="310" height="130" as="geometry" />
        </mxCell>
        <mxCell id="OknJXwTi2QquN4bvKiqD-24" value="" style="line;strokeWidth=1;fillColor=none;align=left;verticalAlign=middle;spacingTop=-1;spacingLeft=3;spacingRight=3;rotatable=0;labelPosition=right;points=[];portConstraint=eastwest;strokeColor=inherit;" vertex="1" parent="OknJXwTi2QquN4bvKiqD-22">
          <mxGeometry y="26" width="310" height="8" as="geometry" />
        </mxCell>
        <mxCell id="OknJXwTi2QquN4bvKiqD-25" value="+ createCustomer(Customer): Customer&lt;div&gt;+ authenticate(name: string, phoneNumber: string, password: string): Customer | null&lt;br&gt;&lt;/div&gt;" style="text;strokeColor=none;fillColor=none;align=left;verticalAlign=top;spacingLeft=4;spacingRight=4;overflow=hidden;rotatable=0;points=[[0,0.5],[1,0.5]];portConstraint=eastwest;whiteSpace=wrap;html=1;" vertex="1" parent="OknJXwTi2QquN4bvKiqD-22">
          <mxGeometry y="34" width="310" height="96" as="geometry" />
        </mxCell>
        <mxCell id="OknJXwTi2QquN4bvKiqD-26" style="rounded=0;orthogonalLoop=1;jettySize=auto;html=1;endArrow=diamond;endFill=1;" edge="1" parent="1" source="OknJXwTi2QquN4bvKiqD-25" target="Hkvkkceks_1zQiWRPkAM-1">
          <mxGeometry relative="1" as="geometry" />
        </mxCell>
      </root>
    </mxGraphModel>
  </diagram>
</mxfile>
